<?xml version="1.0" encoding="utf-8"?>
<!-- Generator: Adobe Illustrator 19.1.0, SVG Export Plug-In . SVG Version: 6.00 Build 0)  -->
<svg version="1.1" id="Layer_1" xmlns="http://www.w3.org/2000/svg" xmlns:xlink="http://www.w3.org/1999/xlink" x="0px" y="0px"
	 viewBox="0 0 344.4 344.4" style="enable-background:new 0 0 344.4 344.4;" xml:space="preserve">
<style type="text/css">
	.st0{fill:#FFFFFF;stroke:#FFFFFF;stroke-width:38.3769;stroke-miterlimit:10;}
	.st1{fill:#1B1B1B;}
	.st2{opacity:0.2;fill:#FFFFFF;}
	.st3{fill:#BE962B;}
	.st4{fill:#FFFFFF;}
</style>
<g>
	<circle class="st0" cx="172.2" cy="172.2" r="153"/>
	<path class="st1" d="M325.2,172.2c0,84.5-68.5,153-153,153s-153-68.5-153-153s68.5-153,153-153S325.2,87.7,325.2,172.2"/>
	<path class="st2" d="M172.2,172.1c0,0,136.2-24.5,150.3-27.4c27.9,59.8-0.8,58.1-0.8,58.1L172.2,172.1z"/>
	<path class="st2" d="M172.6,172.1c0,0-136.2-24.5-150.3-27.4c-27.9,59.8,0.8,58.1,0.8,58.1L172.6,172.1z"/>
	<path class="st3" d="M231.5,172.2c0,32.7-26.5,59.3-59.3,59.3S113,204.9,113,172.2s26.5-59.3,59.3-59.3S231.5,139.5,231.5,172.2"/>
	<path class="st4" d="M183.6,172.2c0,6.3-5.1,11.4-11.4,11.4c-6.3,0-11.4-5.1-11.4-11.4c0-6.3,5.1-11.4,11.4-11.4
		C178.5,160.8,183.6,165.9,183.6,172.2"/>
</g>
<g>
</g>
<g>
</g>
<g>
</g>
<g>
</g>
<g>
</g>
<g>
</g>
</svg>
